# xmcd CD database file
#
# Track frame offsets:
#	182
#	31762
#	76387
#	111510
#	127445
#	152527
#	184182
#	217227
#	237740
#	268440
#
# Disc length: 3852 seconds
#
# Revision: 0
# Processed by: cddbd v1.5.2PL0 Copyright (c) Steve Scherf et al.
# Submitted via: CDex 1.51
#
DISCID=9d0f0a0a
DTITLE=Eddie Harris - For Me, For You, For Evermore
DYEAR=1992
DGENRE=Jazz
TTITLE0=I Remember You
TTITLE1=The End Of the Day
TTITLE2=For Me, For You, For Evermore
TTITLE3=If I Should Lose You
TTITLE4=You Stole My Heart
TTITLE5=Night And Day
TTITLE6=Everything Happens To Me
TTITLE7=Salute To Bags
TTITLE8=All Alone
TTITLE9=Fly Little Bird, Fly
EXTD=YEAR: 1992
EXTT0=
EXTT1=
EXTT2=
EXTT3=
EXTT4=
EXTT5=
EXTT6=
EXTT7=
EXTT8=
EXTT9=
PLAYORDER=
